{"title":"Washington Square 1997 480p HDRip XviD titler","uid":9659396,"size":1310693311,"categoryP":"video","categoryS":"movies","magnet":"?xt=urn:btih:8e5949be414045b3f70170c620da96a6d76d7064&amp;dn=Washington+Square+1997+480p+HDRip+XviD+titler&amp;tr=udp%3A%2F%2Ftracker.openbittorrent.com%3A80&amp;tr=udp%3A%2F%2Fopen.demonii.com%3A1337&amp;tr=udp%3A%2F%2Ftracker.coppersurfer.tk%3A6969&amp;tr=udp%3A%2F%2Fexodus.desync.com%3A6969","seeders":1,"leechers":0,"uploader":"movieZ.freak","files":4,"time":1393247021,"description":"SOURCE: Washington Square 1997 720p WEB-DL H264 - HDCLUB\n\n\n &lt;a href=&quot;\nhttp://www.imdb.com/title/tt0120481/&quot; rel=&quot;nofollow&quot; target=&quot;_NEW&quot;&gt;\nhttp://www.imdb.com/title/tt0120481/&lt;/a&gt;\n\n\n &lt;a href=&quot;\nhttp://www.rottentomatoes.com/m/washington_square/&quot; rel=&quot;nofollow&quot; target=&quot;_NEW&quot;&gt;\nhttp://www.rottentomatoes.com/m/washington_square/&lt;/a&gt;\n\n\n &lt;a href=&quot;\nhttp://en.wikipedia.org/wiki/Washington_Square_%28film%29&quot; rel=&quot;nofollow&quot; target=&quot;_NEW&quot;&gt;\nhttp://en.wikipedia.org/wiki/Washington_Square_%28film%29&lt;/a&gt;\n\n\n\n\n- SAMPLE: Yes\n\n\n- SUBTITLE: English\n\n\n- LANGUAGE / AUDIO: English\n\n\n\n\nSCREENSHOTS:\n-------------------    &lt;a href=&quot;\nhttp://someimage.com/tJck&quot; rel=&quot;nofollow&quot; target=&quot;_NEW&quot;&gt;\nhttp://someimage.com/tJck&lt;/a&gt;\n\n\n\n\nDIRECTOR: Agnieszka Holland\n &lt;a href=&quot;\nhttp://www.imdb.com/name/nm0002140/&quot; rel=&quot;nofollow&quot; target=&quot;_NEW&quot;&gt;\nhttp://www.imdb.com/name/nm0002140/&lt;/a&gt;\n\n\n\nCAST: Jennifer Jason Leigh, Albert Finney, Ben Chaplin, Maggie Smith, Jennifer Garner, Robert Stanton, Judith Ivey,...\n\n\nPLOT:\n-----------\nThis film is the second effort to bring to the screen the 1880 Henry James novel of the same title (the first was The Heiress in 1949). Set in 1850 among the aristocracy of New York, Washington Square examines the inhibitions of Catherine Sloper (Jennifer Jason Leigh), the only child of wealthy Dr. Austin Sloper (Albert Finney). Catherine is clumsy and shy and something of an embarrassment to her high-class father. Dr. Sloper still unconsciously resents the child because her birth caused the death of his wife. He also disapproves of Catherine's attraction to Morris Townsend (Ben Chaplin), warning her that the handsome young man is after her money. He takes Catherine to Europe and warns her to break off her relationship with Morris, but she defies him. Townsend proposes, and Catherine accepts despite her father's threats to disinherit her if she marries him.\n\n\n************************************\n\n- Duration: 1h 55mn\n\n- Bit rate: 1349 Kbps\n\n- Res: 854 x 462\n\n- AR: 1.85:1\n\n- FPS: 23.976 fps\n\n- Audio: AC3, 2 channels, 128Kbps\n\n************************************\n\n\nGeneral\n------------\nFormat : AVI\nFormat/Info : Audio Video Interleave\nFile size : 1.20 GiB\nDuration : 1h 55mn\nOverall bit rate : 1486 Kbps\nMovie name : Washington Square (1997)\nWriting application : VirtualDub build 35491\n\n\nVideo\n-------------\nFormat : MPEG-4 Visual\nFormat profile : Advanced Simple@L5\nFormat settings, BVOP : 2\nFormat settings, QPel : No\nFormat settings, GMC : No warppoints\nFormat settings, Matrix : Default (H.263)\nCodec ID : XVID\nCodec ID/Hint : XviD\nDuration : 1h 55mn\nBit rate : 1349 Kbps\nWidth : 854 pixels\nHeight : 462 pixels\nDisplay aspect ratio : 1.85:1\nFrame rate : 23.976 fps\nColor space : YUV\nChroma subsampling : 4:2:0\nBit depth : 8 bits\nScan type : Progressive\nCompression mode : Lossy\nBits/(Pixel*Frame) : 0.143\nStream size : 1.09 GiB (91%)\nWriting library : XviD 65\n\n\nAudio\n-----------\nFormat : AC-3\nFormat/Info : Audio Coding 3\nMode extension : CM (complete main)\nFormat settings, Endianness : Big\nCodec ID : 2000\nDuration : 1h 55mn\nBit rate mode : Constant\nBit rate : 128 Kbps\nChannel(s) : 2 channels\nChannel positions : Front: L R\nSampling rate : 48.0 KHz\nBit depth : 16 bits\nCompression mode : Lossy\nStream size : 106 MiB (9%)\nAlignment : Split accross interleaves\nInterleave, duration : 42 ms (1.00 video frame)\nInterleave, preload duration : 500 ms\nLanguage : English","torrent":{"xt":"urn:btih:8e5949be414045b3f70170c620da96a6d76d7064","amp;dn":"Washington+Square+1997+480p+HDRip+XviD+titler","amp;tr":["udp%3A%2F%2Ftracker.openbittorrent.com%3A80","udp%3A%2F%2Fopen.demonii.com%3A1337","udp%3A%2F%2Ftracker.coppersurfer.tk%3A6969","udp%3A%2F%2Fexodus.desync.com%3A6969"],"infoHash":"8e5949be414045b3f70170c620da96a6d76d7064","infoHashBuffer":{"type":"Buffer","data":[142,89,73,190,65,64,69,179,247,1,112,198,32,218,150,166,215,109,112,100]},"announce":[],"urlList":[]}}